<?xml version="1.0" encoding="utf-8"?>
<!-- Generator: Adobe Illustrator 17.0.0, SVG Export Plug-In . SVG Version: 6.00 Build 0)  -->
<!DOCTYPE svg PUBLIC "-//W3C//DTD SVG 1.1//EN" "http://www.w3.org/Graphics/SVG/1.1/DTD/svg11.dtd">
<svg version="1.1" id="Layer_1" xmlns="http://www.w3.org/2000/svg" xmlns:xlink="http://www.w3.org/1999/xlink" x="0px" y="0px"
	 width="264.608px" height="58.61px" viewBox="0 7.61 264.608 58.61" enable-background="new 0 7.61 264.608 58.61"
	 xml:space="preserve">
<g>
	<path fill="#2B2A29" d="M16.741,46.602c-1.064,0.398-2.472,0.597-4.223,0.597c-1.001,0-1.877-0.126-2.628-0.377
		c-0.751-0.251-1.376-0.678-1.877-1.281s-0.969-1.439-1.22-2.503c-0.251-1.065-0.469-2.408-0.469-4.035V24.155h12.924v-4.971H6.324
		V9.035l-5.965,1.001v29.029c0,2.169,0.344,4.078,0.699,5.724c0.354,1.648,1.054,3.035,1.929,4.162
		c0.876,1.126,2.075,1.97,3.514,2.534s3.284,0.845,5.495,0.845c1.877,0,3.555-0.22,5.016-0.658c1.459-0.436,2.485-0.802,3.07-1.096
		l-1.123-4.818C18.542,45.925,17.805,46.208,16.741,46.602z"/>
	<path fill="#2B2A29" d="M45.894,21.766c-0.98-1.105-2.274-1.961-3.879-2.565s-3.577-0.908-5.912-0.908
		c-2.044,0-3.941,0.156-5.694,0.47c-1.752,0.312-3.002,0.636-3.753,0.969l0.688,4.818c0.709-0.291,1.783-0.573,3.222-0.845
		c1.439-0.27,3.117-0.407,5.035-0.407c1.502,0,2.722,0.219,3.661,0.657c0.938,0.437,1.678,1.022,2.221,1.752
		c0.541,0.73,1.01,1.564,1.22,2.502c0.208,0.938,0.406,1.888,0.406,2.846v1.627c0-0.041-0.553-0.103-0.969-0.187
		c-0.418-0.084-0.954-0.178-1.517-0.281c-0.563-0.103-1.181-0.188-1.806-0.251c-0.625-0.063-1.243-0.094-1.825-0.094
		c-1.836,0-3.594,0.188-5.261,0.563c-1.669,0.376-3.131,0.96-4.382,1.752c-1.252,0.793-2.244,1.836-2.974,3.129
		c-0.73,1.293-1.096,2.837-1.096,4.629c0,1.878,0.312,3.484,0.938,4.818c0.625,1.336,1.501,2.408,2.628,3.221
		c1.126,0.813,2.461,1.408,4.004,1.785c1.542,0.375,3.231,0.563,5.067,0.563c1.292,0,2.596-0.055,3.91-0.157
		c1.313-0.104,2.533-0.22,3.66-0.344c1.126-0.126,2.366-0.26,3.264-0.408c0.896-0.145,1.331-0.26,2.325-0.344V30.743
		c0-1.835-0.438-3.512-0.855-5.035C47.802,24.185,46.874,22.872,45.894,21.766z M43.109,47.009
		c-0.994,0.167-1.689,0.281-2.753,0.344c-1.064,0.063-2.33,0.093-3.706,0.093c-2.295,0-4.132-0.406-5.467-1.22
		c-1.335-0.813-2.013-2.262-2.013-4.347c0-1.126,0.265-2.033,0.807-2.722c0.541-0.687,1.217-1.229,2.03-1.625
		c0.813-0.396,1.708-0.658,2.689-0.782c0.979-0.124,1.907-0.188,2.783-0.188c1.335,0,2.565,0.074,3.502,0.22
		c0.938,0.147,1.132,0.324,2.127,0.532L43.109,47.009L43.109,47.009z"/>
	<path fill="#2B2A29" d="M75.423,36.625c-0.855-0.752-1.888-1.409-3.097-1.971c-1.21-0.563-2.587-1.136-4.129-1.72
		c-1.168-0.417-2.169-0.813-3.003-1.189c-0.835-0.375-1.533-0.781-2.096-1.22c-0.563-0.438-0.98-0.929-1.251-1.47
		c-0.271-0.541-0.407-1.167-0.407-1.877c0-1.376,0.603-2.386,1.814-3.034c1.209-0.645,2.628-0.97,4.254-0.97
		c1.877,0,3.482,0.179,4.817,0.532c1.334,0.355,2.315,0.699,2.941,1.032l1.064-5.005c-0.334-0.125-0.803-0.27-1.408-0.437
		c-0.605-0.166-1.304-0.322-2.096-0.469c-0.792-0.145-1.648-0.27-2.565-0.376c-0.918-0.103-1.835-0.156-2.753-0.156
		c-3.67,0-6.568,0.845-8.696,2.534c-2.128,1.689-3.19,3.972-3.19,6.851c0,1.46,0.251,2.69,0.751,3.691s1.167,1.856,2.002,2.565
		c0.833,0.71,1.823,1.324,2.972,1.845c1.146,0.521,2.346,1.032,3.597,1.533c2.586,1.043,4.442,1.98,5.568,2.815
		c1.126,0.835,1.689,1.961,1.689,3.378c0,1.375-0.574,2.377-1.721,3.002c-1.147,0.625-2.909,0.938-5.286,0.938
		c-2.42,0-4.359-0.249-5.819-0.75c-1.46-0.501-2.524-0.876-3.19-1.126l-1.064,5.004c0.584,0.251,1.689,0.617,3.316,1.096
		c1.626,0.479,3.878,0.721,6.756,0.721c4.129,0,7.309-0.77,9.54-2.314c2.231-1.544,3.347-3.818,3.347-6.819
		c0-1.544-0.23-2.846-0.688-3.911C76.934,38.281,76.277,37.375,75.423,36.625z"/>
	<path fill="#2B2A29" d="M100.571,46.602c-1.063,0.398-2.471,0.597-4.223,0.597c-1.001,0-1.877-0.126-2.628-0.377
		c-0.751-0.251-1.376-0.678-1.877-1.281c-0.501-0.603-0.632-1.439-0.883-2.503c-0.251-1.065-0.132-2.408-0.132-4.035V24.155h11.93
		v-4.971h-11.93V9.035l-5.965,1.001v29.029c0,2.169,0.007,4.078,0.362,5.724c0.354,1.648,0.885,3.035,1.761,4.162
		c0.876,1.126,1.99,1.97,3.43,2.534s3.242,0.845,5.453,0.845c1.877,0,3.534-0.22,4.994-0.658c1.459-0.436,2.475-0.802,3.06-1.096
		l-1.128-4.818C102.378,45.925,101.635,46.208,100.571,46.602z"/>
	<path fill="#2B2A29" d="M110.925,47.573c1.334,1.501,3.034,2.679,5.099,3.534c2.065,0.855,4.515,1.283,7.351,1.283
		c2.252,0,4.264-0.21,6.038-0.625c1.772-0.418,3.012-0.813,3.722-1.19l-0.813-4.879c-0.71,0.334-1.763,0.68-3.159,1.033
		c-1.398,0.355-3.119,0.532-5.162,0.532c-3.628,0-6.298-0.805-8.008-2.558c-1.711-1.75-2.69-4.64-2.941-7.622h22.271
		c0.041,0,0.243-0.841,0.243-1.238c0-0.396,0-0.72,0-0.97c0-5.588-1.258-9.749-3.593-12.481c-2.336-2.731-5.738-4.098-10.118-4.098
		c-1.877,0-3.735,0.355-5.529,1.064c-1.793,0.71-3.39,1.773-4.766,3.19c-1.376,1.419-2.487,3.201-3.321,5.349
		c-0.835,2.148-1.255,4.661-1.255,7.539c0,2.462,0.321,4.723,0.968,6.788C108.602,44.287,109.59,46.072,110.925,47.573z
		 M113.96,28.861c0.396-1.085,0.948-2.009,1.657-2.844c0.709-0.834,1.574-1.493,2.597-2.016c1.021-0.52,2.199-0.774,3.534-0.774
		c2.377,0,4.244,0.781,5.599,2.471c1.355,1.689,2.011,3.429,1.97,6.411h-16.14C113.303,31.114,113.563,29.945,113.96,28.861z"/>
	<path fill="#2B2A29" d="M144.551,49.981c1.064,0.813,2.314,1.408,3.753,1.785c1.439,0.375,3.013,0.563,4.724,0.563
		c1.334,0,2.637-0.055,3.911-0.157c1.272-0.104,2.427-0.241,3.472-0.406c1.041-0.167,2.166-0.324,2.959-0.47
		c0.792-0.146,1.028-0.281,2.022-0.408V30.493c0-1.711-0.417-3.295-0.834-4.755c-0.417-1.459-1.187-2.721-2.106-3.785
		c-0.917-1.064-2.168-1.897-3.648-2.503c-1.481-0.603-3.31-0.907-5.437-0.907c-2.087,0-3.883,0.146-5.364,0.437
		c-1.48,0.292-2.582,0.604-3.291,0.938l0.559,3.565c0.542-0.208,1.396-0.478,2.564-0.812c1.168-0.333,2.94-0.5,5.317-0.5
		c1.668,0,3.012,0.26,4.035,0.781c1.022,0.522,1.814,1.21,2.378,2.064c0.562,0.855,0.682,1.814,0.849,2.878
		c0.166,1.064,0.005,2.158,0.005,3.285v2.002c0-0.083-0.225-0.177-0.662-0.281c-0.436-0.103-0.837-0.208-1.441-0.312
		c-0.605-0.103-1.17-0.187-1.816-0.25c-0.646-0.063-1.23-0.094-1.814-0.094c-1.962,0-3.76,0.187-5.428,0.563
		c-1.669,0.375-3.1,0.97-4.309,1.783c-1.211,0.813-2.144,1.846-2.811,3.097c-0.668,1.253-1,2.754-1,4.505
		c0,1.837,0.304,3.388,0.908,4.661C142.652,48.126,143.487,49.166,144.551,49.981z M146.209,38.876
		c0.584-0.833,1.334-1.489,2.253-1.968c0.917-0.479,1.918-0.792,3.003-0.939c1.084-0.145,2.128-0.22,3.128-0.22
		c1.752,0,2.883,0.115,3.884,0.345c1.001,0.229,1.944,0.448,1.944,0.656v11.386c0,0.167-1.6,0.303-2.789,0.406
		c-1.188,0.104-2.454,0.157-4.038,0.157c-1.293,0-2.389-0.114-3.411-0.344c-1.022-0.229-1.869-0.597-2.597-1.096
		c-0.73-0.501-1.278-1.167-1.674-2.002c-0.397-0.835-0.587-1.856-0.587-3.066C145.326,40.815,145.625,39.71,146.209,38.876z"/>
	<path fill="#2B2A29" d="M189.376,48.04c-1.044,0.398-2.42,0.597-4.13,0.597c-1,0-1.919-0.104-2.753-0.314
		c-0.835-0.208-1.544-0.625-2.128-1.251c-0.585-0.625-1.149-1.511-1.464-2.658c-0.312-1.147-0.587-2.637-0.587-4.474V23.161h12.924
		v-3.977h-12.924V9.035l-3.977,0.751v29.78c0,2.169,0.239,4.044,0.573,5.629c0.334,1.587,0.944,2.911,1.759,3.973
		c0.813,1.064,1.915,1.856,3.272,2.379c1.354,0.52,3.044,0.782,5.045,0.782c1.709,0,3.298-0.241,4.758-0.721
		c1.459-0.479,2.484-0.907,3.069-1.281l-1-3.378C191.23,47.282,190.418,47.646,189.376,48.04z"/>
	<path fill="#2B2A29" d="M203.452,47.604c-0.375-0.353-0.732-0.835-0.92-1.439s-0.356-1.408-0.356-2.41V9.057l-3.977,0.751v34.074
		c0,1.544,0.206,2.825,0.562,3.846c0.352,1.023,0.891,1.856,1.578,2.503c0.689,0.646,1.551,1.126,2.573,1.439
		c1.021,0.312,2.225,0.489,3.602,0.532l0.566-3.378c-0.835-0.124-1.554-0.269-2.158-0.436
		C204.316,48.219,203.826,47.959,203.452,47.604z"/>
	<path fill="#2B2A29" d="M232.48,21.954c-0.919-1.064-2.118-1.897-3.597-2.503c-1.481-0.603-3.286-0.907-5.412-0.907
		c-2.086,0-3.869,0.146-5.349,0.437c-1.48,0.292-2.577,0.604-3.286,0.938l0.563,3.565c0.542-0.208,1.397-0.478,2.565-0.812
		c1.168-0.333,2.941-0.5,5.319-0.5c1.668,0,3.013,0.26,4.035,0.781c1.021,0.522,1.813,1.21,2.377,2.064
		c0.563,0.855,0.912,1.814,1.08,2.878c0.166,1.064,0.233,2.158,0.233,3.285v2.002c0-0.083-0.451-0.177-0.891-0.281
		c-0.438-0.103-0.95-0.208-1.554-0.312c-0.605-0.103-1.227-0.187-1.874-0.25c-0.646-0.063-1.261-0.094-1.843-0.094
		c-1.962,0-3.775,0.187-5.442,0.563c-1.669,0.375-3.108,0.97-4.318,1.783c-1.21,0.813-2.146,1.846-2.814,3.097
		c-0.666,1.253-1,2.754-1,4.505c0,1.837,0.302,3.388,0.907,4.661c0.604,1.274,1.439,2.314,2.503,3.128
		c1.063,0.813,2.314,1.408,3.753,1.785c1.439,0.375,3.012,0.563,4.723,0.563c1.334,0,2.638-0.055,3.91-0.157
		c1.272-0.104,2.43-0.241,3.473-0.406c1.042-0.167,1.898-0.324,2.69-0.47s1.754-0.281,1.754-0.408V30.493
		c0-1.711-0.147-3.295-0.563-4.755C234.003,24.279,233.396,23.017,232.48,21.954z M231.007,48.136
		c-0.994,0.167-1.828,0.303-3.016,0.406c-1.19,0.104-2.568,0.157-4.153,0.157c-1.293,0-2.447-0.114-3.468-0.344
		c-1.023-0.229-1.897-0.597-2.628-1.096c-0.73-0.501-1.292-1.167-1.686-2.002c-0.397-0.835-0.595-1.856-0.595-3.066
		c0-1.377,0.292-2.481,0.877-3.317c0.583-0.833,1.333-1.489,2.252-1.968c0.917-0.479,1.918-0.792,3.003-0.939
		c1.085-0.145,2.128-0.22,3.128-0.22c1.752,0,3.112,0.115,4.113,0.345c1.001,0.229,2.173,0.448,2.173,0.656L231.007,48.136
		L231.007,48.136z"/>
	<path fill="#2B2A29" d="M262.946,39.658c-0.543-1.021-1.252-1.897-2.128-2.628c-0.876-0.731-1.887-1.354-3.035-1.873
		c-1.147-0.518-2.345-1.027-3.596-1.525c-1.21-0.499-2.284-0.955-3.222-1.371c-0.938-0.415-1.731-0.862-2.377-1.343
		c-0.647-0.481-1.137-1.035-1.47-1.662c-0.334-0.626-0.501-1.38-0.501-2.258s0.188-1.619,0.563-2.224
		c0.377-0.606,0.878-1.108,1.503-1.505s1.345-0.69,2.158-0.878c0.812-0.187,1.678-0.282,2.595-0.282c2.296,0,4.035,0.21,5.225,0.625
		c1.188,0.418,2.032,0.751,2.533,1.001l0.939-3.628c-0.586-0.291-1.596-0.625-3.035-1.001c-1.44-0.376-3.264-0.563-5.474-0.563
		c-3.462,0-6.184,0.813-8.164,2.44c-1.981,1.627-2.972,3.753-2.972,6.382c0,1.376,0.251,2.544,0.752,3.502
		c0.499,0.96,1.167,1.784,2.002,2.472c0.833,0.687,1.792,1.293,2.878,1.813c1.084,0.522,2.231,1.033,3.441,1.533
		c1.501,0.625,2.762,1.167,3.785,1.627c1.021,0.458,1.846,0.938,2.47,1.439c0.626,0.499,1.073,1.062,1.345,1.689
		c0.271,0.625,0.407,1.375,0.407,2.251c0,1.837-0.761,3.14-2.283,3.911c-1.524,0.772-3.453,1.157-5.786,1.157
		c-1.293,0-2.431-0.084-3.411-0.251c-0.98-0.165-1.824-0.365-2.533-0.595c-0.711-0.229-1.274-0.438-1.689-0.625
		c-0.418-0.188-0.689-0.322-0.813-0.408l-1.064,3.691c0.501,0.251,1.501,0.617,3.003,1.096c1.501,0.479,3.669,0.721,6.507,0.721
		c3.794,0,6.786-0.752,8.976-2.253c2.19-1.501,3.285-3.712,3.285-6.631C263.759,41.963,263.487,40.681,262.946,39.658z"/>
	<rect x="106.64" y="59.04" fill="#221F1F" width="86.105" height="1.705"/>
	<rect x="124.518" y="64.155" fill="#221F1F" width="50.35" height="1.705"/>
</g>
</svg>
